<?xml version="1.0" encoding="UTF-8" standalone="no"?>
<?xml-stylesheet href="app.css" type="text/css"?><!-- Created with Inkscape (http://www.inkscape.org/) -->

<svg
   xmlns:dc="http://purl.org/dc/elements/1.1/"
   xmlns:cc="http://creativecommons.org/ns#"
   xmlns:rdf="http://www.w3.org/1999/02/22-rdf-syntax-ns#"
   xmlns:svg="http://www.w3.org/2000/svg"
   xmlns="http://www.w3.org/2000/svg"
   xmlns:xlink="http://www.w3.org/1999/xlink"
   xmlns:sodipodi="http://sodipodi.sourceforge.net/DTD/sodipodi-0.dtd"
   xmlns:inkscape="http://www.inkscape.org/namespaces/inkscape"
   width="218"
   height="218"
   viewBox="0 0 218 218"
   id="svg2"
   version="1.1"
   inkscape:version="0.92.4 (5da689c313, 2019-01-14)"
   sodipodi:docname="forcedinductionc.svg"
   inkscape:export-filename="C:\Users\sam\Desktop\bitmap.png"
   inkscape:export-xdpi="181.33821"
   inkscape:export-ydpi="181.33821">
  <defs
     id="defs4">
    <linearGradient
       id="linearGradient3938">
      <stop
         style="stop-color:#ff0000;stop-opacity:1;"
         offset="0"
         id="stop3940" />
      <stop
         style="stop-color:#00ff4b;stop-opacity:1;"
         offset="1"
         id="stop3942" />
    </linearGradient>
    <linearGradient
       id="linearGradient4607">
      <stop
         id="stop4609"
         offset="0"
         style="stop-color:#e40000;stop-opacity:1;" />
      <stop
         style="stop-color:#e40000;stop-opacity:1;"
         offset="0.89960396"
         id="stop4611" />
      <stop
         id="stop4613"
         offset="1"
         style="stop-color:#e40000;stop-opacity:0;" />
      <stop
         id="stop4615"
         offset="1"
         style="stop-color:#e40000;stop-opacity:0;" />
    </linearGradient>
    <linearGradient
       id="linearGradient4597">
      <stop
         id="stop4599"
         offset="0"
         style="stop-color:#e40000;stop-opacity:1;" />
      <stop
         style="stop-color:#e40000;stop-opacity:1;"
         offset="0.99812102"
         id="stop4601" />
      <stop
         id="stop4603"
         offset="1"
         style="stop-color:#e40000;stop-opacity:0;" />
      <stop
         id="stop4605"
         offset="1"
         style="stop-color:#e40000;stop-opacity:1" />
    </linearGradient>
    <linearGradient
       id="linearGradient4545">
      <stop
         style="stop-color:#e40000;stop-opacity:1;"
         offset="0"
         id="stop4547" />
      <stop
         id="stop4553"
         offset="0.9861111"
         style="stop-color:#e40000;stop-opacity:1;" />
      <stop
         style="stop-color:#e40000;stop-opacity:0;"
         offset="1"
         id="stop4555" />
      <stop
         style="stop-color:#e40000;stop-opacity:0;"
         offset="1"
         id="stop4549" />
    </linearGradient>
    <linearGradient
       inkscape:collect="always"
       id="linearGradient4256">
      <stop
         style="stop-color:#6d0000;stop-opacity:1;"
         offset="0"
         id="stop4258" />
      <stop
         style="stop-color:#6d0000;stop-opacity:0;"
         offset="1"
         id="stop4260" />
    </linearGradient>
    <linearGradient
       id="linearGradient4365">
      <stop
         style="stop-color:#000000;stop-opacity:0.42857143;"
         offset="0"
         id="stop4367" />
      <stop
         id="stop4373"
         offset="0.5"
         style="stop-color:#000000;stop-opacity:0.33035713;" />
      <stop
         style="stop-color:#000000;stop-opacity:0;"
         offset="1"
         id="stop4369" />
    </linearGradient>
    <linearGradient
       id="linearGradient4357">
      <stop
         style="stop-color:#000000;stop-opacity:1;"
         offset="0"
         id="stop4359" />
      <stop
         style="stop-color:#000000;stop-opacity:0.19642857;"
         offset="1"
         id="stop4361" />
    </linearGradient>
    <marker
       style="overflow:visible"
       id="DistanceStart"
       refX="0"
       refY="0"
       orient="auto"
       inkscape:stockid="DistanceStart">
      <g
         id="g2300">
        <path
           style="fill:none;stroke:#ffffff;stroke-width:1.14999998;stroke-linecap:square"
           d="M 0,0 2,0"
           id="path2306"
           inkscape:connector-curvature="0" />
        <path
           style="fill:#000000;fill-rule:evenodd;stroke:none"
           d="M 0,0 13,4 9,0 13,-4 0,0 z"
           id="path2302"
           inkscape:connector-curvature="0" />
        <path
           style="fill:none;stroke:#000000;stroke-width:1;stroke-linecap:square"
           d="M 0,-4 0,40"
           id="path2304"
           inkscape:connector-curvature="0" />
      </g>
    </marker>
    <radialGradient
       inkscape:collect="always"
       xlink:href="#linearGradient4357"
       id="radialGradient4363"
       cx="480"
       cy="544"
       fx="480"
       fy="544"
       r="320"
       gradientUnits="userSpaceOnUse"
       gradientTransform="matrix(1.03125,0,0,1.03125,-15,-17)" />
    <radialGradient
       inkscape:collect="always"
       xlink:href="#linearGradient4365"
       id="radialGradient4371"
       cx="480"
       cy="544"
       fx="480"
       fy="544"
       r="320"
       gradientUnits="userSpaceOnUse" />
    <clipPath
       clipPathUnits="userSpaceOnUse"
       id="clipPath4407">
      <path
         inkscape:connector-curvature="0"
         id="path4409"
         d="m 480,-103.33 c -357.5105,0 -647.33,289.8195 -647.33,647.33 0,357.5105 289.8195,647.33 647.33,647.33 357.5105,0 647.33,-289.8195 647.33,-647.33 0,-357.5105 -289.8195,-647.33 -647.33,-647.33 z m 0,453.131 c 107.25316,0 194.199,86.94584 194.199,194.199 0,107.25316 -86.94584,194.199 -194.199,194.199 -107.25316,0 -194.199,-86.94584 -194.199,-194.199 0,-107.25316 86.94584,-194.199 194.199,-194.199 z"
         style="color:#000000;fill:#ffffff;fill-opacity:0.61375661;fill-rule:nonzero;stroke:none;stroke-width:16;marker:none;visibility:visible;display:inline;overflow:visible;enable-background:accumulate" />
    </clipPath>
    <clipPath
       clipPathUnits="userSpaceOnUse"
       id="clipPath4321-9">
      <path
         style="color:#000000;fill:#ffffff;fill-opacity:1;fill-rule:nonzero;stroke:none;stroke-width:5;marker:none;visibility:visible;display:inline;overflow:visible;enable-background:accumulate"
         d="m 480,224 c -20.28024,0 -40.11069,1.89279 -59.34375,5.5 l 12.0625,58.8125 C 448.05208,285.49499 463.85489,284 480,284 c 35.52728,0 69.40254,7.13112 100.25,20.03125 l 24.1875,-54.9375 C 566.18747,232.93508 524.13347,224 480,224 z m -69.0625,7.5 c -59.26533,13.0371 -112.35258,42.49901 -154.28125,83.375 l 42.53125,42.3125 c 24.37935,-23.60266 53.35266,-42.49216 85.46875,-55.15625 1.96795,-0.77601 3.94641,-1.52096 5.9375,-2.25 10.51172,-3.84886 21.33856,-7.01901 32.4375,-9.5 L 410.9375,231.5 z M 613.5,253.125 589.3125,308.03125 c 44.07702,20.45389 81.43119,52.91567 107.9375,93.15625 l 50.875,-31.875 C 715.25578,318.96815 668.59379,278.45303 613.5,253.125 z m -363.8125,68.75 c -41.23795,42.75016 -70.70543,96.92973 -83.125,157.34375 l 59.03125,11.0625 c 10.15322,-48.33557 33.70357,-91.7229 66.625,-126.09375 L 249.6875,321.875 z m 503.78125,55.8125 -50.90625,31.84375 C 726.31882,448.76688 740,494.78478 740,544 l 60,0 c 0,-60.90677 -16.99384,-117.84887 -46.53125,-166.3125 z m -588.75,111.25 C 161.61652,506.82573 160,525.2248 160,544 c 0,42.78463 8.42108,83.60181 23.65625,120.90625 L 238.84375,641.375 C 226.69144,611.30216 220,578.42944 220,544 c 0,-2.24366 0.0373,-4.48871 0.0937,-6.71875 0.3211,-12.67426 1.55282,-25.12039 3.625,-37.28125 l -59,-11.0625 z M 242.75,650.5 187.53125,674 c 23.4008,52.56805 60.5346,97.67196 106.875,130.71875 l 34.0625,-49.4375 C 291.42063,728.66516 261.6562,692.55546 242.75,650.5 z m 93.875,110.40625 -34.03125,49.40625 C 353.37348,844.20872 414.36502,864 480,864 l 0,-60 c -33.65485,0 -65.82451,-6.39115 -95.34375,-18.03125 -1.96795,-0.77601 -3.93088,-1.58396 -5.875,-2.40625 -14.80462,-6.26183 -28.90394,-13.88046 -42.15625,-22.65625 z"
         id="path4323-8"
         inkscape:connector-curvature="0" />
    </clipPath>
    <radialGradient
       inkscape:collect="always"
       xlink:href="#linearGradient4357"
       id="radialGradient4363-9"
       cx="480"
       cy="544"
       fx="480"
       fy="544"
       r="320"
       gradientUnits="userSpaceOnUse"
       gradientTransform="matrix(1.03125,0,0,1.03125,-15,-17)" />
    <clipPath
       clipPathUnits="userSpaceOnUse"
       id="clipPath4407-3">
      <path
         inkscape:connector-curvature="0"
         id="path4409-5"
         d="m 480,-103.33 c -357.5105,0 -647.33,289.8195 -647.33,647.33 0,357.5105 289.8195,647.33 647.33,647.33 357.5105,0 647.33,-289.8195 647.33,-647.33 0,-357.5105 -289.8195,-647.33 -647.33,-647.33 z m 0,453.131 c 107.25316,0 194.199,86.94584 194.199,194.199 0,107.25316 -86.94584,194.199 -194.199,194.199 -107.25316,0 -194.199,-86.94584 -194.199,-194.199 0,-107.25316 86.94584,-194.199 194.199,-194.199 z"
         style="color:#000000;fill:#ffffff;fill-opacity:0.61375661;fill-rule:nonzero;stroke:none;stroke-width:16;marker:none;visibility:visible;display:inline;overflow:visible;enable-background:accumulate" />
    </clipPath>
    <radialGradient
       gradientTransform="matrix(0.37015162,0,0,0.37015162,685.90181,-270.76027)"
       inkscape:collect="always"
       xlink:href="#linearGradient4365"
       id="radialGradient4371-4"
       cx="480"
       cy="544"
       fx="480"
       fy="544"
       r="320"
       gradientUnits="userSpaceOnUse" />
    <linearGradient
       inkscape:collect="always"
       xlink:href="#linearGradient4256"
       id="linearGradient4433"
       gradientUnits="userSpaceOnUse"
       x1="569.20557"
       y1="424.29861"
       x2="890.55139"
       y2="424.29861" />
    <clipPath
       clipPathUnits="userSpaceOnUse"
       id="clipPath4321-4">
      <path
         style="color:#000000;fill:#ffffff;fill-opacity:1;fill-rule:nonzero;stroke:none;stroke-width:5;marker:none;visibility:visible;display:inline;overflow:visible;enable-background:accumulate"
         d="m 480,224 c -20.28024,0 -40.11069,1.89279 -59.34375,5.5 l 12.0625,58.8125 C 448.05208,285.49499 463.85489,284 480,284 c 35.52728,0 69.40254,7.13112 100.25,20.03125 l 24.1875,-54.9375 C 566.18747,232.93508 524.13347,224 480,224 z m -69.0625,7.5 c -59.26533,13.0371 -112.35258,42.49901 -154.28125,83.375 l 42.53125,42.3125 c 24.37935,-23.60266 53.35266,-42.49216 85.46875,-55.15625 1.96795,-0.77601 3.94641,-1.52096 5.9375,-2.25 10.51172,-3.84886 21.33856,-7.01901 32.4375,-9.5 L 410.9375,231.5 z M 613.5,253.125 589.3125,308.03125 c 44.07702,20.45389 81.43119,52.91567 107.9375,93.15625 l 50.875,-31.875 C 715.25578,318.96815 668.59379,278.45303 613.5,253.125 z m -363.8125,68.75 c -41.23795,42.75016 -70.70543,96.92973 -83.125,157.34375 l 59.03125,11.0625 c 10.15322,-48.33557 33.70357,-91.7229 66.625,-126.09375 L 249.6875,321.875 z m 503.78125,55.8125 -50.90625,31.84375 C 726.31882,448.76688 740,494.78478 740,544 l 60,0 c 0,-60.90677 -16.99384,-117.84887 -46.53125,-166.3125 z m -588.75,111.25 C 161.61652,506.82573 160,525.2248 160,544 c 0,42.78463 8.42108,83.60181 23.65625,120.90625 L 238.84375,641.375 C 226.69144,611.30216 220,578.42944 220,544 c 0,-2.24366 0.0373,-4.48871 0.0937,-6.71875 0.3211,-12.67426 1.55282,-25.12039 3.625,-37.28125 l -59,-11.0625 z M 242.75,650.5 187.53125,674 c 23.4008,52.56805 60.5346,97.67196 106.875,130.71875 l 34.0625,-49.4375 C 291.42063,728.66516 261.6562,692.55546 242.75,650.5 z m 93.875,110.40625 -34.03125,49.40625 C 353.37348,844.20872 414.36502,864 480,864 l 0,-60 c -33.65485,0 -65.82451,-6.39115 -95.34375,-18.03125 -1.96795,-0.77601 -3.93088,-1.58396 -5.875,-2.40625 -14.80462,-6.26183 -28.90394,-13.88046 -42.15625,-22.65625 z"
         id="path4323-7"
         inkscape:connector-curvature="0" />
    </clipPath>
    <radialGradient
       inkscape:collect="always"
       xlink:href="#linearGradient4357"
       id="radialGradient4363-5"
       cx="480"
       cy="544"
       fx="480"
       fy="544"
       r="320"
       gradientUnits="userSpaceOnUse"
       gradientTransform="matrix(1.03125,0,0,1.03125,-15,-17)" />
    <clipPath
       clipPathUnits="userSpaceOnUse"
       id="clipPath4407-6">
      <path
         inkscape:connector-curvature="0"
         id="path4409-1"
         d="m 480,-103.33 c -357.5105,0 -647.33,289.8195 -647.33,647.33 0,357.5105 289.8195,647.33 647.33,647.33 357.5105,0 647.33,-289.8195 647.33,-647.33 0,-357.5105 -289.8195,-647.33 -647.33,-647.33 z m 0,453.131 c 107.25316,0 194.199,86.94584 194.199,194.199 0,107.25316 -86.94584,194.199 -194.199,194.199 -107.25316,0 -194.199,-86.94584 -194.199,-194.199 0,-107.25316 86.94584,-194.199 194.199,-194.199 z"
         style="color:#000000;fill:#ffffff;fill-opacity:0.61375661;fill-rule:nonzero;stroke:none;stroke-width:16;marker:none;visibility:visible;display:inline;overflow:visible;enable-background:accumulate" />
    </clipPath>
    <radialGradient
       gradientTransform="matrix(0.36968813,0,0,0.36968813,1026.9451,-270.68256)"
       inkscape:collect="always"
       xlink:href="#linearGradient4365"
       id="radialGradient4371-49"
       cx="480"
       cy="544"
       fx="480"
       fy="544"
       r="320"
       gradientUnits="userSpaceOnUse" />
    <linearGradient
       inkscape:collect="always"
       xlink:href="#linearGradient4256"
       id="linearGradient4746"
       gradientUnits="userSpaceOnUse"
       x1="569.20557"
       y1="424.29861"
       x2="890.55139"
       y2="424.29861" />
    <clipPath
       clipPathUnits="userSpaceOnUse"
       id="clipPath3921">
      <path
         inkscape:connector-curvature="0"
         id="path3923"
         d="m 480,224 c -20.95323,0 -41.43416,2.01857 -61.26367,5.86328 l 12.08008,58.80274 C 446.74495,285.61583 463.18224,284 480,284 c 36.22419,0 70.7135,7.41519 102.04492,20.79883 l 24.1836,-54.92188 C 567.49749,233.23259 524.82925,224 480,224 z m -67.13867,7.07812 c -60.69914,12.96113 -115.01734,43.12659 -157.60938,85.15821 l 42.54297,42.3125 c 34.42536,-33.82645 78.22177,-58.13556 127.14258,-68.68555 l -12.07617,-58.78516 z m 198.86328,21.20508 -24.1875,54.9336 c 45.44422,20.67199 83.88358,54.04459 110.80078,95.58008 l 50.87305,-31.84376 C 715.93577,319.29347 668.20331,277.82636 611.72461,252.2832 z m -360.70117,68.21094 c -42.37565,43.40627 -72.5223,98.80082 -84.8418,160.63281 l 58.99024,11.05664 c 10.06229,-49.7524 34.33605,-94.34359 68.39257,-129.3789 l -42.54101,-42.31055 z m 501.3789,55.54102 -50.86132,31.83398 C 725.92383,447.46544 740,494.08649 740,544 l 60,0 C 800,482.39079 782.57195,424.85952 752.40234,376.03516 z M 165.06055,487.02148 C 161.7373,505.51211 160,524.55271 160,544 c 0,43.47625 8.68492,84.91949 24.39062,122.71094 l 55.21485,-23.5293 C 226.98058,612.61583 220,579.12541 220,544 c 0,-15.6701 1.38639,-31.01527 4.04297,-45.92188 l -58.98242,-11.05664 z m 76.90039,161.67774 -55.20899,23.52734 c 23.61428,53.92719 61.65397,100.09134 109.25586,133.60352 l 34.03516,-49.41406 C 291.73258,729.3212 261.08736,692.12046 241.96094,648.69922 z m 93.01953,111.12695 -34.04102,49.42188 C 352.04051,843.81227 413.66249,864 480,864 l 0,-60 c -53.69777,0 -103.59151,-16.28243 -145.01953,-44.17383 z"
         style="color:#000000;fill:#ffffff;fill-opacity:1;fill-rule:nonzero;stroke:none;stroke-width:5;marker:none;visibility:visible;display:inline;overflow:visible;enable-background:accumulate" />
    </clipPath>
    <clipPath
       clipPathUnits="userSpaceOnUse"
       id="clipPath3925-1">
      <path
         inkscape:connector-curvature="0"
         id="path3927-7"
         d="m 330,10 c -20.95323,0 -41.43416,2.01857 -61.26367,5.86328 l 12.08008,58.80274 C 296.74495,71.61583 313.18224,70 330,70 c 36.22419,0 70.7135,7.41519 102.04492,20.79883 l 24.1836,-54.92188 C 417.49749,19.23259 374.82925,10 330,10 z m -67.13867,7.07812 C 202.16219,30.03925 147.84399,60.20471 105.25195,102.23633 l 42.54297,42.3125 C 182.22028,110.72238 226.01669,86.41327 274.9375,75.86328 L 262.86133,17.07812 z m 198.86328,21.20508 -24.1875,54.9336 c 45.44422,20.67199 83.88358,54.04459 110.80078,95.58008 l 50.87305,-31.84376 C 565.93577,105.29347 518.20331,63.82636 461.72461,38.2832 z m -360.70117,68.21094 c -42.37565,43.40627 -72.5223,98.80082 -84.8418,160.63281 l 58.99024,11.05664 c 10.06229,-49.7524 34.33605,-94.34359 68.39257,-129.3789 l -42.54101,-42.31055 z m 501.3789,55.54102 -50.86132,31.83398 C 575.92383,233.46544 590,280.08649 590,330 l 60,0 C 650,268.39079 632.57195,210.85952 602.40234,162.03516 z M 15.06055,273.02148 C 11.7373,291.51211 10,310.55271 10,330 c 0,43.47625 8.68492,84.91949 24.39062,122.71094 l 55.21485,-23.5293 C 76.98058,398.61583 70,365.12541 70,330 c 0,-15.6701 1.38639,-31.01527 4.04297,-45.92188 L 15.06055,273.02148 z m 76.90039,161.67774 -55.20899,23.52734 c 23.61428,53.92719 61.65397,100.09134 109.25586,133.60352 l 34.03516,-49.41406 C 141.73258,515.3212 111.08736,478.12046 91.96094,434.69922 z m 93.01953,111.12695 -34.04102,49.42188 C 202.04051,629.81227 263.66249,650 330,650 l 0,-60 c -53.69777,0 -103.59151,-16.28243 -145.01953,-44.17383 z"
         style="color:#000000;fill:#ffffff;fill-opacity:1;fill-rule:nonzero;stroke:none;stroke-width:5;marker:none;visibility:visible;display:inline;overflow:visible;enable-background:accumulate" />
    </clipPath>
    <clipPath
       clipPathUnits="userSpaceOnUse"
       id="clipPath4036">
      <path
         style="color:#000000;fill:#ffffff;fill-opacity:1;fill-rule:nonzero;stroke:none;stroke-width:5;marker:none;visibility:visible;display:inline;overflow:visible;enable-background:accumulate"
         d="m 480,224 c -20.95323,0 -41.43416,2.01857 -61.26367,5.86328 l 12.08008,58.80274 C 446.74495,285.61583 463.18224,284 480,284 c 36.22419,0 70.7135,7.41519 102.04492,20.79883 l 24.1836,-54.92188 C 567.49749,233.23259 524.82925,224 480,224 z m -67.13867,7.07812 c -60.69914,12.96113 -115.01734,43.12659 -157.60938,85.15821 l 42.54297,42.3125 c 34.42536,-33.82645 78.22177,-58.13556 127.14258,-68.68555 l -12.07617,-58.78516 z m 198.86328,21.20508 -24.1875,54.9336 c 45.44422,20.67199 83.88358,54.04459 110.80078,95.58008 l 50.87305,-31.84376 C 715.93577,319.29347 668.20331,277.82636 611.72461,252.2832 z m -360.70117,68.21094 c -42.37565,43.40627 -72.5223,98.80082 -84.8418,160.63281 l 58.99024,11.05664 c 10.06229,-49.7524 34.33605,-94.34359 68.39257,-129.3789 l -42.54101,-42.31055 z m 501.3789,55.54102 -50.86132,31.83398 C 725.92383,447.46544 740,494.08649 740,544 l 60,0 C 800,482.39079 782.57195,424.85952 752.40234,376.03516 z M 165.06055,487.02148 C 161.7373,505.51211 160,524.55271 160,544 c 0,43.47625 8.68492,84.91949 24.39062,122.71094 l 55.21485,-23.5293 C 226.98058,612.61583 220,579.12541 220,544 c 0,-15.6701 1.38639,-31.01527 4.04297,-45.92188 l -58.98242,-11.05664 z m 76.90039,161.67774 -55.20899,23.52734 c 23.61428,53.92719 61.65397,100.09134 109.25586,133.60352 l 34.03516,-49.41406 C 291.73258,729.3212 261.08736,692.12046 241.96094,648.69922 z m 93.01953,111.12695 -34.04102,49.42188 C 352.04051,843.81227 413.66249,864 480,864 l 0,-60 c -53.69777,0 -103.59151,-16.28243 -145.01953,-44.17383 z"
         id="path4038"
         inkscape:connector-curvature="0" />
    </clipPath>
    <linearGradient
       inkscape:collect="always"
       xlink:href="#linearGradient4545"
       id="linearGradient4551"
       x1="480"
       y1="214"
       x2="480"
       y2="474"
       gradientUnits="userSpaceOnUse" />
    <linearGradient
       inkscape:collect="always"
       xlink:href="#linearGradient4545-2"
       id="linearGradient4551-8"
       x1="480"
       y1="214"
       x2="480"
       y2="474"
       gradientUnits="userSpaceOnUse" />
    <linearGradient
       id="linearGradient4545-2">
      <stop
         style="stop-color:#e40000;stop-opacity:1;"
         offset="0"
         id="stop4547-4" />
      <stop
         id="stop4553-5"
         offset="0.99000001"
         style="stop-color:#e40000;stop-opacity:0;" />
      <stop
         style="stop-color:#000000;stop-opacity:0;"
         offset="1"
         id="stop4555-5" />
      <stop
         style="stop-color:#000000;stop-opacity:0;"
         offset="1"
         id="stop4549-1" />
    </linearGradient>
    <linearGradient
       y2="282.59341"
       x2="474.60886"
       y1="211.1199"
       x1="480"
       gradientUnits="userSpaceOnUse"
       id="linearGradient4574"
       xlink:href="#linearGradient4607"
       inkscape:collect="always"
       gradientTransform="matrix(1,0,0,0.9882541,0,10.359887)" />
    <clipPath
       clipPathUnits="userSpaceOnUse"
       id="clipPath4036-1">
      <path
         style="color:#000000;fill:#ffffff;fill-opacity:1;fill-rule:nonzero;stroke:none;stroke-width:5;marker:none;visibility:visible;display:inline;overflow:visible;enable-background:accumulate"
         d="m 480,224 c -20.95323,0 -41.43416,2.01857 -61.26367,5.86328 l 12.08008,58.80274 C 446.74495,285.61583 463.18224,284 480,284 c 36.22419,0 70.7135,7.41519 102.04492,20.79883 l 24.1836,-54.92188 C 567.49749,233.23259 524.82925,224 480,224 z m -67.13867,7.07812 c -60.69914,12.96113 -115.01734,43.12659 -157.60938,85.15821 l 42.54297,42.3125 c 34.42536,-33.82645 78.22177,-58.13556 127.14258,-68.68555 l -12.07617,-58.78516 z m 198.86328,21.20508 -24.1875,54.9336 c 45.44422,20.67199 83.88358,54.04459 110.80078,95.58008 l 50.87305,-31.84376 C 715.93577,319.29347 668.20331,277.82636 611.72461,252.2832 z m -360.70117,68.21094 c -42.37565,43.40627 -72.5223,98.80082 -84.8418,160.63281 l 58.99024,11.05664 c 10.06229,-49.7524 34.33605,-94.34359 68.39257,-129.3789 l -42.54101,-42.31055 z m 501.3789,55.54102 -50.86132,31.83398 C 725.92383,447.46544 740,494.08649 740,544 l 60,0 C 800,482.39079 782.57195,424.85952 752.40234,376.03516 z M 165.06055,487.02148 C 161.7373,505.51211 160,524.55271 160,544 c 0,43.47625 8.68492,84.91949 24.39062,122.71094 l 55.21485,-23.5293 C 226.98058,612.61583 220,579.12541 220,544 c 0,-15.6701 1.38639,-31.01527 4.04297,-45.92188 l -58.98242,-11.05664 z m 76.90039,161.67774 -55.20899,23.52734 c 23.61428,53.92719 61.65397,100.09134 109.25586,133.60352 l 34.03516,-49.41406 C 291.73258,729.3212 261.08736,692.12046 241.96094,648.69922 z m 93.01953,111.12695 -34.04102,49.42188 C 352.04051,843.81227 413.66249,864 480,864 l 0,-60 c -53.69777,0 -103.59151,-16.28243 -145.01953,-44.17383 z"
         id="path4038-7"
         inkscape:connector-curvature="0" />
    </clipPath>
    <linearGradient
       id="linearGradient4357-0">
      <stop
         style="stop-color:#000000;stop-opacity:0.65178573;"
         offset="0"
         id="stop4359-9" />
      <stop
         style="stop-color:#000000;stop-opacity:0.24107143;"
         offset="1"
         id="stop4361-4" />
    </linearGradient>
    <radialGradient
       inkscape:collect="always"
       xlink:href="#linearGradient4365-4"
       id="radialGradient4371-2"
       cx="480"
       cy="544"
       fx="480"
       fy="544"
       r="320"
       gradientUnits="userSpaceOnUse" />
    <linearGradient
       id="linearGradient4365-4">
      <stop
         style="stop-color:#000000;stop-opacity:0.42857143;"
         offset="0"
         id="stop4367-5" />
      <stop
         id="stop4373-5"
         offset="0.5"
         style="stop-color:#000000;stop-opacity:0.33035713;" />
      <stop
         style="stop-color:#000000;stop-opacity:0;"
         offset="1"
         id="stop4369-1" />
    </linearGradient>
    <radialGradient
       inkscape:collect="always"
       xlink:href="#linearGradient4357-0-7"
       id="radialGradient4363-4-1"
       cx="480"
       cy="544"
       fx="480"
       fy="544"
       r="320"
       gradientUnits="userSpaceOnUse"
       gradientTransform="matrix(1.03125,0,0,1.03125,-15,-17)" />
    <linearGradient
       id="linearGradient4357-0-7">
      <stop
         style="stop-color:#000000;stop-opacity:0.51785713;"
         offset="0"
         id="stop4359-9-4" />
      <stop
         style="stop-color:#000000;stop-opacity:0.11607143;"
         offset="1"
         id="stop4361-4-0" />
    </linearGradient>
    <radialGradient
       r="320"
       fy="544"
       fx="480"
       cy="544"
       cx="480"
       gradientTransform="matrix(1.03125,0,0,1.03125,-15,-17)"
       gradientUnits="userSpaceOnUse"
       id="radialGradient4001"
       xlink:href="#linearGradient4357-0-7"
       inkscape:collect="always" />
    <radialGradient
       inkscape:collect="always"
       xlink:href="#linearGradient4357-0-7"
       id="radialGradient4040"
       gradientUnits="userSpaceOnUse"
       gradientTransform="matrix(1.03125,0,0,1.03125,-885,-231)"
       cx="480"
       cy="544"
       fx="480"
       fy="544"
       r="320" />
    <radialGradient
       inkscape:collect="always"
       xlink:href="#linearGradient4357-0-7"
       id="radialGradient4045"
       gradientUnits="userSpaceOnUse"
       gradientTransform="matrix(1.03125,0,0,1.03125,-885,-231)"
       cx="480"
       cy="544"
       fx="480"
       fy="544"
       r="320" />
    <radialGradient
       inkscape:collect="always"
       xlink:href="#linearGradient4357-0-7-2"
       id="radialGradient4045-8"
       gradientUnits="userSpaceOnUse"
       gradientTransform="matrix(1.03125,0,0,1.03125,-885,-231)"
       cx="480"
       cy="544"
       fx="480"
       fy="544"
       r="320" />
    <linearGradient
       id="linearGradient4357-0-7-2">
      <stop
         style="stop-color:#000000;stop-opacity:0.51785713;"
         offset="0"
         id="stop4359-9-4-4" />
      <stop
         style="stop-color:#000000;stop-opacity:0.11607143;"
         offset="1"
         id="stop4361-4-0-5" />
    </linearGradient>
    <radialGradient
       r="320"
       fy="544"
       fx="480"
       cy="544"
       cx="480"
       gradientTransform="matrix(1.03125,0,0,1.03125,-758.53125,-231)"
       gradientUnits="userSpaceOnUse"
       id="radialGradient4063"
       xlink:href="#linearGradient4357-0-7-2"
       inkscape:collect="always" />
    <radialGradient
       inkscape:collect="always"
       xlink:href="#linearGradient4357-0-7"
       id="radialGradient4082"
       gradientUnits="userSpaceOnUse"
       gradientTransform="matrix(1.03125,0,0,1.03125,-885,-231)"
       cx="480"
       cy="544"
       fx="480"
       fy="544"
       r="320" />
    <radialGradient
       inkscape:collect="always"
       xlink:href="#linearGradient4357-0-8"
       id="radialGradient4363-4-9"
       cx="480"
       cy="544"
       fx="480"
       fy="544"
       r="320"
       gradientUnits="userSpaceOnUse"
       gradientTransform="matrix(1.03125,0,0,1.03125,-15,-17)" />
    <linearGradient
       id="linearGradient4357-0-8">
      <stop
         style="stop-color:#000000;stop-opacity:0.51785713;"
         offset="0"
         id="stop4359-9-40" />
      <stop
         style="stop-color:#000000;stop-opacity:0.11607143;"
         offset="1"
         id="stop4361-4-7" />
    </linearGradient>
    <radialGradient
       r="320"
       fy="544"
       fx="480"
       cy="544"
       cx="480"
       gradientTransform="matrix(1.03125,0,0,1.03125,-15,-17)"
       gradientUnits="userSpaceOnUse"
       id="radialGradient4031-1"
       xlink:href="#linearGradient4357-0-8-5"
       inkscape:collect="always" />
    <linearGradient
       id="linearGradient4357-0-8-5">
      <stop
         style="stop-color:#000000;stop-opacity:0.51785713;"
         offset="0"
         id="stop4359-9-40-4" />
      <stop
         style="stop-color:#000000;stop-opacity:0.11607143;"
         offset="1"
         id="stop4361-4-7-2" />
    </linearGradient>
    <radialGradient
       inkscape:collect="always"
       xlink:href="#linearGradient4357-0-3"
       id="radialGradient4363-4-0"
       cx="480"
       cy="544"
       fx="480"
       fy="544"
       r="320"
       gradientUnits="userSpaceOnUse"
       gradientTransform="matrix(1.03125,0,0,1.03125,-15,-17)" />
    <linearGradient
       id="linearGradient4357-0-3">
      <stop
         style="stop-color:#000000;stop-opacity:0.65178573;"
         offset="0"
         id="stop4359-9-8" />
      <stop
         style="stop-color:#000000;stop-opacity:0.24107143;"
         offset="1"
         id="stop4361-4-01" />
    </linearGradient>
    <clipPath
       clipPathUnits="userSpaceOnUse"
       id="clipPath4407-8-2">
      <path
         inkscape:connector-curvature="0"
         id="path4409-8-5"
         d="m 480,-103.33 c -357.5105,0 -647.33,289.8195 -647.33,647.33 0,357.5105 289.8195,647.33 647.33,647.33 357.5105,0 647.33,-289.8195 647.33,-647.33 0,-357.5105 -289.8195,-647.33 -647.33,-647.33 z m 0,453.131 c 107.25316,0 194.199,86.94584 194.199,194.199 0,107.25316 -86.94584,194.199 -194.199,194.199 -107.25316,0 -194.199,-86.94584 -194.199,-194.199 0,-107.25316 86.94584,-194.199 194.199,-194.199 z"
         style="color:#000000;fill:#ffffff;fill-opacity:0.61375661;fill-rule:nonzero;stroke:none;stroke-width:16;marker:none;visibility:visible;display:inline;overflow:visible;enable-background:accumulate" />
    </clipPath>
    <radialGradient
       r="320"
       fy="544"
       fx="480"
       cy="544"
       cx="480"
       gradientTransform="matrix(1.03125,0,0,1.03125,-15,-17)"
       gradientUnits="userSpaceOnUse"
       id="radialGradient4401"
       xlink:href="#linearGradient4357-0-3"
       inkscape:collect="always" />
    <radialGradient
       r="320"
       fy="544"
       fx="480"
       cy="544"
       cx="480"
       gradientUnits="userSpaceOnUse"
       id="radialGradient3997-4"
       xlink:href="#linearGradient4365-4-7"
       inkscape:collect="always" />
    <linearGradient
       id="linearGradient4365-4-7">
      <stop
         style="stop-color:#000000;stop-opacity:0.42857143;"
         offset="0"
         id="stop4367-5-8" />
      <stop
         id="stop4373-5-3"
         offset="0.5"
         style="stop-color:#000000;stop-opacity:0.33035713;" />
      <stop
         style="stop-color:#000000;stop-opacity:0;"
         offset="1"
         id="stop4369-1-5" />
    </linearGradient>
    <radialGradient
       r="320"
       fy="544"
       fx="480"
       cy="544"
       cx="480"
       gradientUnits="userSpaceOnUse"
       id="radialGradient4458"
       xlink:href="#linearGradient4365-4-7"
       inkscape:collect="always" />
    <clipPath
       clipPathUnits="userSpaceOnUse"
       id="clipPath3653">
      <path
         style="color:#000000;display:inline;overflow:visible;visibility:visible;fill:#ffffff;fill-opacity:0.61375661;fill-rule:nonzero;stroke:none;stroke-width:16;marker:none;enable-background:accumulate"
         d="M 480,84 C 225.94901,84 20,289.94901 20,544 20,798.05099 225.94901,1004 480,1004 734.05099,1004 940,798.05099 940,544 940,289.94901 734.05099,84 480,84 Z m 0,322 c 76.21531,0 138,61.78469 138,138 0,76.21531 -61.78469,138 -138,138 -76.21531,0 -138,-61.78469 -138,-138 0,-76.21531 61.78469,-138 138,-138 z"
         id="path3655"
         inkscape:connector-curvature="0" />
    </clipPath>
    <clipPath
       clipPathUnits="userSpaceOnUse"
       id="clipPath4490">
      <path
         style="color:#000000;font-style:normal;font-variant:normal;font-weight:normal;font-stretch:normal;font-size:medium;line-height:normal;font-family:sans-serif;text-indent:0;text-align:start;text-decoration:none;text-decoration-line:none;text-decoration-style:solid;text-decoration-color:#000000;letter-spacing:normal;word-spacing:normal;text-transform:none;direction:ltr;block-progression:tb;writing-mode:lr-tb;baseline-shift:baseline;text-anchor:start;white-space:normal;clip-rule:nonzero;display:inline;overflow:visible;visibility:visible;opacity:1;isolation:auto;mix-blend-mode:normal;color-interpolation:sRGB;color-interpolation-filters:linearRGB;solid-color:#000000;solid-opacity:1;fill:#000000;fill-opacity:1;fill-rule:evenodd;stroke:none;stroke-width:96.91093445;stroke-linecap:butt;stroke-linejoin:miter;stroke-miterlimit:4;stroke-dasharray:none;stroke-dashoffset:0;stroke-opacity:1;color-rendering:auto;image-rendering:auto;shape-rendering:auto;text-rendering:auto;enable-background:accumulate"
         d="m 330,10 c -176.15718,3e-6 -319.999997,143.84282 -320,320 0,88.07859 35.961054,168.07824 93.94141,226.05859 l 68.0957,-68.0957 C 131.73748,447.66326 106.91016,391.89131 106.91016,330 c 0,-123.78262 99.30722,-223.08984 223.08984,-223.08984 123.78262,0 223.08984,99.30722 223.08984,223.08984 0,61.89131 -24.82732,117.66326 -65.12695,157.96289 l 68.0957,68.0957 C 614.03895,498.07824 650,418.07859 650,330 650,153.84282 506.15718,10 330,10 Z"
         id="path4492"
         inkscape:connector-curvature="0" />
    </clipPath>
    <clipPath
       clipPathUnits="userSpaceOnUse"
       id="clipPath4494">
      <path
         style="color:#000000;font-style:normal;font-variant:normal;font-weight:normal;font-stretch:normal;font-size:medium;line-height:normal;font-family:sans-serif;text-indent:0;text-align:start;text-decoration:none;text-decoration-line:none;text-decoration-style:solid;text-decoration-color:#000000;letter-spacing:normal;word-spacing:normal;text-transform:none;direction:ltr;block-progression:tb;writing-mode:lr-tb;baseline-shift:baseline;text-anchor:start;white-space:normal;clip-rule:nonzero;display:inline;overflow:visible;visibility:visible;opacity:1;isolation:auto;mix-blend-mode:normal;color-interpolation:sRGB;color-interpolation-filters:linearRGB;solid-color:#000000;solid-opacity:1;fill:#000000;fill-opacity:1;fill-rule:evenodd;stroke:none;stroke-width:96.91093445;stroke-linecap:butt;stroke-linejoin:miter;stroke-miterlimit:4;stroke-dasharray:none;stroke-dashoffset:0;stroke-opacity:1;color-rendering:auto;image-rendering:auto;shape-rendering:auto;text-rendering:auto;enable-background:accumulate"
         d="m 330,10 c -176.15718,3e-6 -319.999997,143.84282 -320,320 0,88.07859 35.961054,168.07824 93.94141,226.05859 l 68.0957,-68.0957 C 131.73748,447.66326 106.91016,391.89131 106.91016,330 c 0,-123.78262 99.30722,-223.08984 223.08984,-223.08984 123.78262,0 223.08984,99.30722 223.08984,223.08984 0,61.89131 -24.82732,117.66326 -65.12695,157.96289 l 68.0957,68.0957 C 614.03895,498.07824 650,418.07859 650,330 650,153.84282 506.15718,10 330,10 Z"
         id="path4496"
         inkscape:connector-curvature="0" />
    </clipPath>
    <clipPath
       clipPathUnits="userSpaceOnUse"
       id="clipPath4498">
      <path
         style="color:#000000;font-style:normal;font-variant:normal;font-weight:normal;font-stretch:normal;font-size:medium;line-height:normal;font-family:sans-serif;text-indent:0;text-align:start;text-decoration:none;text-decoration-line:none;text-decoration-style:solid;text-decoration-color:#000000;letter-spacing:normal;word-spacing:normal;text-transform:none;direction:ltr;block-progression:tb;writing-mode:lr-tb;baseline-shift:baseline;text-anchor:start;white-space:normal;clip-rule:nonzero;display:inline;overflow:visible;visibility:visible;opacity:1;isolation:auto;mix-blend-mode:normal;color-interpolation:sRGB;color-interpolation-filters:linearRGB;solid-color:#000000;solid-opacity:1;fill:#000000;fill-opacity:1;fill-rule:evenodd;stroke:none;stroke-width:96.91093445;stroke-linecap:butt;stroke-linejoin:miter;stroke-miterlimit:4;stroke-dasharray:none;stroke-dashoffset:0;stroke-opacity:1;color-rendering:auto;image-rendering:auto;shape-rendering:auto;text-rendering:auto;enable-background:accumulate"
         d="m 240.41631,-226.27417 c -124.56194,124.56194 -124.56194,327.9864 0,452.54834 62.28096,62.28097 144.27756,93.42096 226.27417,93.42095 l 0,-96.30186 c -56.99229,0 -113.98458,-21.88116 -157.74834,-65.64492 -87.52753,-87.527531 -87.52753,-227.969149 0,-315.49668 87.52753,-87.52753 227.96915,-87.52753 315.49668,0 C 668.20258,-113.98457 690.08374,-56.992283 690.08374,0 l 96.30186,0 c 1e-5,-81.996605 -31.13998,-163.9932 -93.42095,-226.27417 -124.56194,-124.56194 -327.98641,-124.56194 -452.54834,0 z"
         id="path4500"
         inkscape:connector-curvature="0" />
    </clipPath>
  </defs>
  <sodipodi:namedview
     id="base"
     pagecolor="#ffffff"
     bordercolor="#666666"
     borderopacity="1.0"
     inkscape:pageopacity="0.0"
     inkscape:pageshadow="2"
     inkscape:zoom="1.0967166"
     inkscape:cx="374.80461"
     inkscape:cy="340.97274"
     inkscape:document-units="px"
     inkscape:current-layer="layer7"
     showgrid="true"
     inkscape:window-width="1920"
     inkscape:window-height="1053"
     inkscape:window-x="-8"
     inkscape:window-y="-8"
     inkscape:window-maximized="1"
     fit-margin-top="0"
     fit-margin-left="0"
     fit-margin-right="0"
     fit-margin-bottom="0"
     showguides="false"
     inkscape:guide-bbox="true"
     inkscape:snap-to-guides="true"
     inkscape:snap-grids="true"
     inkscape:snap-bbox="true"
     inkscape:bbox-nodes="true"
     inkscape:bbox-paths="true"
     inkscape:snap-bbox-edge-midpoints="true"
     inkscape:snap-bbox-midpoints="true"
     inkscape:snap-center="true"
     inkscape:snap-object-midpoints="true"
     inkscape:snap-page="true">
    <inkscape:grid
       type="xygrid"
       id="grid3954"
       empspacing="5"
       visible="true"
       enabled="true"
       snapvisiblegridlinesonly="true"
       originx="-150"
       originy="-150"
       spacingx="1"
       spacingy="1" />
  </sodipodi:namedview>
  <metadata
     id="metadata7">
    <rdf:RDF>
      <cc:Work
         rdf:about="">
        <dc:format>image/svg+xml</dc:format>
        <dc:type
           rdf:resource="http://purl.org/dc/dcmitype/StillImage" />
        <dc:title></dc:title>
      </cc:Work>
    </rdf:RDF>
  </metadata>
  <g
     inkscape:label="background"
     inkscape:groupmode="layer"
     id="layer1"
     transform="translate(-150,-242.36218)"
     style="display:none;opacity:1">
    <rect
       style="fill:#505050;fill-opacity:1;stroke:none"
       id="rect4616"
       width="2175.3789"
       height="1458.4727"
       x="-727.47485"
       y="-115.47279" />
  </g>
  <g
     inkscape:groupmode="layer"
     id="layer3"
     inkscape:label="FIX"
     style="display:inline">
    <g
       id="revcurvemask"
       clip-path="url(#clipPath4710)"
       style="display:inline">
      <rect
         style="color:#000000;display:inline;overflow:visible;visibility:visible;fill:#000000;fill-opacity:0.37037036;fill-rule:nonzero;stroke:none;stroke-width:16;marker:none;enable-background:accumulate"
         id="rect4001"
         width="683.79401"
         height="683.79401"
         x="127.97179"
         y="-340.09323"
         transform="rotate(45)"
         clip-path="url(#clipPath4498)" />
      <path
         style="color:#000000;overflow:visible;visibility:visible;fill:none;stroke:#9c0000;stroke-width:117.91827393;stroke-linecap:butt;stroke-linejoin:bevel;stroke-miterlimit:4;stroke-dasharray:none;stroke-dashoffset:604.6484375;stroke-opacity:0.66137564;marker:none;enable-background:accumulate"
         d="M 147.99571,510.41274 C 33.434043,395.42128 59.279735,242.76116 138.14044,153.71911 230,50 387.77546,50.913502 485.67663,112.95746 c 165.77018,105.05531 132.03401,312.46382 37.32761,407.0596"
         id="pressure_redline"
         clip-path="url(#clipPath4490)"
         inkscape:connector-curvature="0"
         sodipodi:nodetypes="cssc" />
    </g>
  </g>
  <g
     inkscape:groupmode="layer"
     id="layer11"
     inkscape:label="revs"
     style="display:inline" />
  <g
     inkscape:groupmode="layer"
     id="layer7"
     inkscape:label="new2"
     style="display:inline" />
</svg>
